<?xml version="1.0" encoding="utf-8"?>
<!-- Generator: Adobe Illustrator 19.1.0, SVG Export Plug-In . SVG Version: 6.00 Build 0)  -->
<svg version="1.1" id="Layer_1" xmlns="http://www.w3.org/2000/svg" xmlns:xlink="http://www.w3.org/1999/xlink" x="0px" y="0px"
	 viewBox="0 0 612 385.1" enable-background="new 0 0 612 385.1" xml:space="preserve">
<style>
#layer1{
	  -webkit-animation: fadein 2s;
	     -moz-animation: fadein 2s;
	      -ms-animation: fadein 2s;
	       -o-animation: fadein 2s;
	          animation: fadein 2s;
	}

	@keyframes fadein {
	    from { opacity: 0; }
	    to   { opacity: 1; }
	}
	@-moz-keyframes fadein {
	    from { opacity: 0; }
	    to   { opacity: 1; }
	}
</style>

<g>
	<g id="layer3">
		<path id="AK_1_" fill="#7F7F7F" d="M100.3,289.8l-0.2,54.9l1,0.6l2,0.1l0.9-0.7h1.7l0.1,1.9l4.5,4.4l0.3,1.7l2.2-1.2l0.4-0.1
			l0.2-2l0.9-1l0.7-0.1l1.2-0.9l2,1.4l0.4,1.9l1.2,0.7l0.7,1.6l2.5,1.1l2.2,3.8l1.8,2.5l1.5,1.8l0.9,2.4l3.2,1.1l3.3,1.4l0.6,2.8
			l0.3,2l-0.6,2.2l-1.1,1.5l-1-0.5l-0.9-2l-1.8-0.9l-1.1-0.7l-0.5,0.5l0.9,1.8l0.1,2.4l-0.7,0.3l-1.2-1.2l-1.4-0.8l0.3,1l0.8,1.1
			l-0.5,0.5c0,0-0.5-0.2-0.8-0.6c-0.3-0.4-1.4-2.2-1.4-2.2l-0.6-1.5c0,0-0.2,0.8-0.6,0.6c-0.4-0.2-0.8-0.9-0.8-0.9l1.1-1.2l-0.9-0.9
			v-3.2h-0.5l-0.5,2.2l-0.7,0.3l-0.6-2.4l-0.4-2.4l-0.5-0.3l0.2,3.6v0.7l-0.9-0.8l-2.3-3.8l-1.4-0.3l-0.4-2.4l-1-1.9l-1-0.7V357
			l1.4-0.8L115,356l-1.7,0.4l-2.2-1.6l-1.7-1.9l-3.1-1.7l-2.6-1.7l0.8-2.1v-1l-1.1,1l-1.9,0.7l-2.4-0.7l-3.6-1.6H92l-0.4,0.3
			l-4.2-2.5l-1.4-0.2l-1.8-3.7l-2.3,0.2l-2.3,0.9l0.3,2.9l0.7-1.9l0.6,0.2l-0.9,2.8l2.1-1.8l0.4,1l-2.5,2.8l-0.8-0.2l-0.3-1.2
			l-0.8-0.5l-0.8,0.7l-1.8-1.1l-2,1.4l-1.1,1.4l-2.2,1.4l-3-0.1l-0.3-1.4l2.4-0.4v-0.8l-1.5-0.4l0.6-1.6l1.5-2.5v-1.1l0.1-0.5
			l2.8-1.5l0.6,0.8h1.8l-0.8-1.7l-2.4-0.2l-3.2,1.8l-1.6,2.2l-1.1,1.7l-0.7,1.5l-2.7,0.9l-2,1.7l-0.2,1l1.5,0.6l0.5,1.4l-1.8,2.1
			l-4.2,2.7l-5,2.7l-1.4,0.7l-3.4,0.7l-3.4,1.5l1.1,0.8l-0.9,0.9l-0.3,0.7l-1.8-0.6l-2.1,0.1l-0.5,1.5h-0.6l0.2-1.6l-2.3,0.8
			l-1.9,0.6l-2.2-0.8l-1.9,1.2h-2.1l-1.4,0.8l-1,0.5l-1.4-0.2l-1.7-0.7l-1.5,0.4l-0.6,0.6l-1-0.7v-1.2l2-0.8l4.1,0.4l2.8-1l1.4-1.4
			l1.9-0.4l1.1-0.5l1.8,0.1l1,0.8l0.6-0.2l1.5-1.8l2-0.6l2.2-0.4l0.8-0.2l0.4,0.3H44l0.8-2.4l2.6-0.9l1.2-2.4l1.5-2.9l1-0.9l0.2-1.7
			l-1,0.8l-2.2,0.4l-0.4-1.6l-0.8-0.2l-0.6,0.6l-0.1,1.9l-0.9-0.1l-0.9-3.7l-0.8,0.8l-0.7-0.3l-0.2-1.2l-2.6,0.1l-1.4,0.7l-1.7-0.2
			l0.9-0.9l0.3-1.7l-0.4-1.2l0.9-0.6l0.8-0.1l-0.4-1.1v-2.8l-0.6-0.6l-0.5,0.9h-4l-0.9-0.8l-0.4-2.5l-1.4-2.3v-0.6l1.4-0.5l0.1-1.4
			l0.7-0.7l-0.5-0.3l-0.8,0.3l-0.7-1.8l0.6-3.2l2.9-2.1l1.7-1l1.2-2.4l1.8-0.8l1.7,0.7l0.2,1.6l1.6-0.2l2.1-1.6l1,0.4l0.6,0.4h1
			l1.5-0.8l0.5-2.8c0,0,0.2-1.9,0.6-2.2s0.6-0.6,0.6-0.6l-0.7-1.2l-1.7,0.5l-2.1,0.5l-1.2-0.3l-2.3-1.1l-3.2-0.1l-2.3-2.4l0.3-2.5
			l0.4-1.6l-1.4-1.1l-1.2-2.4l0.3-0.5l4.4-0.3h1.4l0.6,0.6h0.4l-0.1-1l2.5-0.4l1.7,0.2l0.9,0.7l-0.9,1.4l-0.3,0.9l1.8,1l3.2,1.1
			l1.1-0.6l-1.5-2.8l-0.6-2.1l0.6-0.5l-2.2-1.2l-0.3-0.7l0.3-1l-0.5-2.5l-1.9-3l-1.6-2.7l1.9-1.2H49l1.1,0.4l2.7-0.1l2.4-2.3l0.7-2
			l2.4-1.6l1,0.6l1.8-0.4l2.4-1.4l0.7-0.1l0.6,0.5l2.9-0.1l1.8-2h0.7l2.3,1.6l1.2,1.4l-0.3,0.7l0.4,0.7l1-1l2.5,0.2l0.2,2.4l1.2,0.9
			l4.6,0.4l4.1,2.7l0.9-0.6l3.3,1.7l1.4-0.4l1.2-0.5l3.1,1.2L100.3,289.8z M26.3,308.4l1.4,3.4l-0.1,0.6l-1.9-0.2l-1.1-2.6l-1.1-0.9
			h-1.6l-0.1-1.7l1.1-1.6l0.7,1.6l0.9,0.9L26.3,308.4z M24.7,329.9l2.4,0.5l2.4,0.6l0.5,0.6l-1,2.4l-2-0.1l-2.2-2.3L24.7,329.9z
			 M11.4,320.9l0.7,1.7l0.7,1l-0.7,0.5l-1.4-2v-1.2H11.4z M2.5,367.9l2.2-1.5l2.2-0.6l1.7,0.2l0.3,1l1.2,0.3l1.2-1.2l-0.2-1l1.8-0.4
			l1.9,1.7l-0.7,1.1l-2.8,0.7l-1.8-0.3l-2.4-0.7l-2.8,0.9l-1,0.2L2.5,367.9z M34,364.9l1,1.2l1.4-1l-0.9-0.8L34,364.9z M35.9,366.9
			l0.7-1.5l1.4,0.2l-0.5,1.2H35.9z M51.1,365.7l0.9,1.1l0.6-0.7l-0.5-1.2L51.1,365.7z M56.7,357.7l0.7,3.7l1.9,0.5l3.2-1.9l2.8-1.7
			l-1-1.6l0.3-1.6l-1.4,0.8l-1.9-0.5l1-0.7l1.2,0.5l2.5-1.1l0.3-0.9l-1.6-0.5l0.5-1.2l-1.8,1.2l-3,2.3l-3.1,1.9L56.7,357.7z
			 M83.9,344.9l1.6-0.9l-0.6-1.1l-1.1,0.6L83.9,344.9z"/>
		<path id="FL_1_" fill="#7F7F7F" stroke="#D1D3D4" stroke-width="0.25" d="M484.5,284.5l1.5,4.7
			l2.4,6.3l3.4,6l2.4,4.1l3.1,3.5l2.6,2.4l1,1.9l-0.7,0.8l-0.5,0.8l1.9,4.8l1.9,1.9l1.7,3.4l2.3,3.7l2.9,5.3l0.8,4.9l0.3,7.7
			l0.4,1.1l-0.2,2.2l-1.6,0.8l0.2,1.2l-0.4,1.2l0.2,1.6l0.3,1.2l-1.8,2.1l-2,0.9l-2.5,0.1l-0.9,1l-1.6,0.6l-0.8-0.3l-0.7-0.6
			l-0.2-1.9l-0.5-2.2l-2.2-3.3l-2.3-1.5l-2.5-0.2l-0.5,0.8l-2-2.8l-0.4-2.3l-1.7-2.6l-1.1-0.7l-1,1.4l-1.1-0.2l-1.4-3.2l-1.9-2.5
			l-1.9-3.4l-1.7-2l-2.3-2.4l1.4-1.6l2.1-3.5l-0.1-1l-2.9-0.6l-1,0.4l0.2,0.4l1.7,0.6l-0.9,2.9l-0.5,0.3l-1.1-2.6l-0.8-3.1l-0.2-1.8
			l0.9-3v-6.1l-2-2.4l-0.8-2l-3.3-0.8l-1.2-0.4l-1-1.7l-2.2-1l-0.7-2.2l-1.8-0.6l-1.6-2.4l-2.7-0.9l-1.9-0.9h-1.7l-2.6,0.5l-0.1,1.2
			l0.5,0.6l-0.3,0.7l-2-0.1l-2.4,2.3l-2.3,1.2h-2.5l-2.1,0.8l-0.2-1.8l-1-1.2l-1.9-0.7l-1-0.9l-5.2-2.5l-4.9-1.1l-2.8,0.4l-3.8,0.3
			l-3.8,1.4l-2.2,0.4l-0.2-5.2l-1.7-1.2l-1.1-1.1l0.2-2l6.5-0.8l16.4-1.9l4.4-0.4l3.5,0.2l1.7,2.5l0.9,0.9l5.2,0.3l7-0.4l13.8-0.8
			l3.5-0.4l2.9,0l0.1,1.9l2.5,0.5l0.2-3.1l-1-2.9l0.6-0.5l3.3,0.3L484.5,284.5L484.5,284.5z M492.5,369.7l1.6-0.4l0.8-0.2l0.9-1.5
			l1.5-1l0.8,0.3l1.1,0.2l0.3,0.7l-2.2,0.8l-2.7,0.9l-1.5,0.8L492.5,369.7L492.5,369.7z M501.2,366.5l0.8,0.7l1.8-1.4l3.4-2.7
			l2.4-2.5l1.6-4.3l0.6-1.1l0.1-2.2l-0.5,0.3l-0.6,1.8l-0.9,3l-2.1,3.4l-2.8,2.7l-2.2,1.2L501.2,366.5L501.2,366.5z"/>
		<path id="SC_1_" fill="#7F7F7F" stroke="#D1D3D4" stroke-width="0.25" d="M488.2,263.6l-1.1,0.6
			l-1.7-0.8L485,262l-0.8-2.3l-1.5-1.4l-1.7-0.4l-1-3.1l-1.8-3.8l-2.7-1.2l-1.4-1.2l-0.8-1.7l-1.4-1.2l-1.5-0.8l-1.5-1.9l-2-1.5
			l-2.9-1.1l-0.3-0.9l-1.6-1.9l-0.3-0.9l-2.2-3.3l-2.2,0.1l-2.6-1.6l-0.8-0.8l-0.2-1.1l0.5-1.2l1.5-0.6l-0.2-1.4l4-1.7l5.8-2.9
			l4.7-0.5l10.6-0.3l1.5,1.2l1,2.1l2.8-0.3l8.1-0.9l1.9,0.5l8.1,4.9l6.5,5.2l-3.5,3.5l-1.7,4l-0.3,4.1l-1,0.5l-0.7,1.8l-1.6,0.4
			l-1.4,2.3l-1.8,1.8l-1.5,2.2l-1,0.5l-2.3,2.2l-1.9,0.1l0.6,2.1l-3.2,3.5L488.2,263.6L488.2,263.6z"/>
		<path id="GA_1_" fill="#7F7F7F" stroke="#D1D3D4" stroke-width="0.25" d="M442.2,228.2l-3.1,0.5
			l-5.4,0.7l-5.5,0.6v1.4l0.1,1.4l0.4,2.2l2.2,5.1l1.6,6.3l0.9,4l1,3.1l0.9,4.5l1.4,4.1l1.7,2.2l0.3,2.2l1.2,0.5l0.1,1.4l-1.1,3.1
			l-0.3,2.1l-0.1,1.2l1,2.8l0.2,3.4l-0.5,1.6l0.4,0.5l0.9,0.5l0.4,2.2l1.7,2.5l0.9,0.9l5.1,0.1l7-0.4l13.8-0.8l3.5-0.4l2.9,0
			l0.1,1.9l1.7,0.5l0.2-2.8l-1-2.9l0.7-1l3.7,0.5l3.2,0.2l-0.5-4.1l1.5-6.4l0.9-2.7l-0.3-1.7l2.1-4l-0.3-0.9l-1.2,0.5l-1.7-0.8
			l-0.4-1.4l-0.8-2.3l-1.5-1.4l-1.7-0.4l-1-3.1l-1.9-4.1L475,250l-1.4-1.2l-0.8-1.7l-1.4-1.2L470,245l-1.5-1.9l-2-1.5l-2.9-1.1
			l-0.3-0.9l-1.6-1.9l-0.3-0.9l-2.2-3.2l-2.2,0.1l-2.7-2l-0.8-0.8l-0.2-1.1l0.5-1.2l1.5-0.8l-0.7-0.8l0.1-0.2l-3.7,0.6l-4.5,0.5
			L442.2,228.2L442.2,228.2z"/>
		<path id="AL_1_" fill="#7F7F7F" stroke="#D1D3D4" stroke-width="0.25" d="M401,298.2l-1-9.8l-1.8-12.1l0.1-9l0.5-20l-0.1-10.7
			l0.1-4.1l5-0.2l17.9-1.7l5.7-0.4l-0.1,1.4l0.1,1.4l0.4,2.2l2.2,5.1l1.6,6.3l0.9,4l1,3.1l0.9,4.5l1.4,4.1l1.7,2.2l0.3,2.2l1.2,0.5
			l0.1,1.4l-1.1,3.1l-0.3,2.1l-0.1,1.2l1,2.8l0.2,3.4l-0.5,1.6l0.4,0.5l0.9,0.5l0.7,1.6h-4.1l-4.4,0.4l-16.4,1.9l-6.7,0.9l-0.1,2.4
			l1.1,1.1l1.7,1.2l0.4,5.1l-3.6,1.7l-1.8-0.2l1.8-1.2V298l-2-3.8l-1.5-0.4l-0.9,2.8l-0.8,1.8l-0.4-0.1H401z"/>
		<path id="NC_1_" fill="#7F7F7F" stroke="#D1D3D4" stroke-width="0.25" d="M533.8,190l1.1,3l2.3,4.2l1.6,1.6l0.4,1.5l-1.6,0.1
			l0.5,0.4l-0.2,2.7l-1.7,0.8l-0.4,1.4l-0.8,1.9l-2.4,1l-1.6-0.2l-0.9-0.1l-1-0.8l0.2,0.8v0.6h1.2l0.5,0.8l-1.2,4.1h2.7l0.4,1
			l1.5-1.5l0.8-0.3l-1.2,2.3l-2,3.1h-0.8l-0.7-0.3l-1.8,0.4l-3.3,1.6l-4.2,3.4l-2.2,3l-1.2,4.2l-0.3,1.6l-3,0.3l-3.5,0.9l-6.4-5.3
			l-8.1-4.9l-1.9-0.5l-8.1,0.9l-2.8,0.5l-1-2.1l-1.9-1.4l-10.6,0.3l-4.7,0.5l-5.8,2.9l-4,1.7l-1,0.2l-3.7,0.6l-4.5,0.5l-4.4,0.3
			l0.3-2.6l1.1-0.9l1.8-0.4l0.4-2.4l2.7-1.8l2.5-0.9l2.7-2.3l2.8-1.4l0.4-2l2.5-2.5l0.4-0.1c0,0,0,0.7,0.5,0.7
			c0.5,0,1.2,0.2,1.2,0.2l1.5-2.3l1.4-0.4l1.5,0.2l1-2.3l1.9-1.7l0.3-1.4V201l2.9,0.5l4.6-0.8l10.2-1.2l11-1.7l12.8-2.6l12.7-2.7
			l7.3-1.8L533.8,190z M536.3,211.2l1.7-1.6l2-1.7l1-0.4l0.1-1.3l-0.4-4l-0.9-1.5l-0.4-1.2l0.5-0.2l1.8,3.5l0.3,2.9l-0.1,2.2l-2.2,1
			l-1.8,1.6l-0.7,0.8L536.3,211.2z"/>
		<path id="TN_1_" fill="#7F7F7F" stroke="#D1D3D4" stroke-width="0.25" d="M447,204.2l-33.4,3.2l-10.1,1.1l-3,0.3l-2.5,0v2.5
			l-5.4,0.3l-4.5,0.4l-7.1,0l-0.2,3.8l-1.4,4l-0.6,1.9l-0.9,2.8l-0.2,1.7l-2.6,1.5l0.9,2.3l-0.6,2.8l-0.6,0.5l4.7-0.1L395,232
			l3.4-0.1l5.2-0.3l17.9-1.7l6.5-0.5l5.4-0.6l5.4-0.7l3.1-0.5l-0.1-2.9l1.1-0.9l1.8-0.4l0.4-2.4l2.7-1.8l2.5-0.9l2.7-2.3l2.8-1.4
			l0.6-2.3l2.8-2.5l0.4-0.1c0,0,0,0.7,0.5,0.7s1.2,0.2,1.2,0.2l1.5-2.3l1.4-0.4l1.5,0.2l1-2.3l1.4-1.4l0.4-0.6l0.1-2.5l-1-0.2
			l-1.6,1.2l-5.1,0.1l-7.7,1.2L447,204.2z"/>
		<path id="WV_1_" fill="#7F7F7F" stroke="#D1D3D4" stroke-width="0.25" d="M485.2,153.6l0.7,3.2l0.7,4.4l2.3-1.8l1.5-2l1.6-0.4
			l0.9-0.9l1.1-1.7l0.8,0.4l1.9-0.2l1.7-1.4l1.3-0.9l1.2-0.3l0.8,0.7l1.4,0.7l1.2,1.1l0.9,0.8l-0.1,3l-3.6-2l-2.9-1.1l-0.1,3.4
			l-0.3,1.4l-1,1.8l-0.4,1l-2,1.6l-0.3,1.5l-2.2,0.2l-0.2,2l-0.7,3.5h-1.7l-0.8-0.5l-1-1.8l-1.1,0.1l-0.2,2.8l-1.4,4.3l-3.2,7
			l0.5,0.8l-0.1,1.8l-1.4,1.2l-0.9-0.2l-2.1,1.6l-1.7-0.6l-1.1,3c0,0-2.4,0.5-2.8,0.6c-0.4,0.1-1.6-0.8-1.6-0.8l-1.6,1.5l-1.7,0.4
			l-1.9-0.5l-0.8-0.8l-1.4-1.9l-2-1.3l-1.7-1.8l-1.9-2.4l-0.4-1.5l-1.7-0.9l-0.5-1l-0.2-3.4l1.4-0.1l1.2-0.5l0.1-1.8l1-0.9l0.1-3.2
			l0.6-2.5l0.8-0.4l0.8,0.7l0.3,1.1l1.1-0.6l0.3-1l-0.7-1.1v-1.6l0.6-0.8l1.5-2.2l0.8-0.9l1.4,0.3l1.5-1l2-2.2l1.5-2.5l0.2-3.6
			l0.3-3.2v-3l-0.7-2l0.6-0.9l0.8-0.8l2.2,12.8l3-0.5L485.2,153.6z"/>
		<path id="KY_1_" fill="#7F7F7F" stroke="#D1D3D4" stroke-width="0.25" d="M462.9,189.5l-1.5,1.7l-2.7,2.3l-2.8,3.8l-1.1,1.1v1.4
			l-2.5,1.4l-3.6,2.2l-2.3,0.2l-33.4,3.2l-10.1,1.1l-3,0.3l-2.5,0l-0.1,2.7L392,211l-4.5,0.4l-6.7,0.1l1.2-0.1l1.4-1.1l1.3-0.7
			l0.1-2.1l0.6-1.2l-1-1.6l0.5-1.2l1.5-1.1l1.4-0.4l1.8,0.8l2.3,0.8l0.7-0.2l0.1-1.5l-0.8-1.6l0.2-1.5l1.2-0.9l1.7-0.4l1-0.4
			l-0.5-1.1l-0.4-1.2l0.7-0.5l0.7-2.1l1.9-1.1l3.7-0.6l2.3-0.3l0.9,1.2l1.1,0.5l1.1-2.1l1.9-0.9l1.2,1l0.5,0.7l1.4-0.3l-0.1-2.2
			l1.9-1l0.7-0.5l0.7,1h3l0.5-1.4l-0.2-1.5l1.9-2.3l3-2.5l0.3-2.9l1.8-0.2l2.5-1.1l1.8-1.2l-0.2-1.2l-0.9-0.9l0.4-1.4l2.7-0.2
			l1.6-0.5l1.9,1l1,2.8l3.7,0.2l1.1,1.1l1.4,0.1l1.6-0.9l2,0.3l0.8,0.9l1.8-1.7l1.1-0.8h1l0.4,1.8l1.1,0.6l1.6,1.4l0.1,3.5l0.5,1
			l1.7,0.9l0.4,1.5l1.9,2.4l1.7,1.8L462.9,189.5z"/>
		<path id="OH_1_" fill="#7F7F7F" stroke="#D1D3D4" stroke-width="0.25" d="M469.1,123.4l-3.9,2.6
			l-2.5,1.5l-2.2,2.4l-2.6,2.5l-2.1,0.5l-1.9,0.3l-3.5,1.7L449,135l-2.2-2l-3.3,0.4l-1.7-0.9l-1.5-0.9l-3.1,0.5l-6.5,1l-5,0.8
			l0.8,9.4l1.1,8.8l1.7,15.1l0.4,3.1l2.7-0.1l1.6-0.5l2.2,1l1.3,2.8l3.3,0l1.2,1.4l1.1,0l1.6-0.9l1.6,0.2l1.3,0.9l1.1-1.4l1.5-0.8
			l1.3-0.4l0.4,1.8l1.1,0.6l2.2,1.5l1.4-0.1l0.7-0.7l0-0.9l1-0.9l0.1-3.2l0.6-2.5l1-0.9l1,0.6l0.5,0.8l0.8-0.1l-0.3-1.6l-0.4-0.4
			v-1.6l0.6-0.8l1.5-2.2l0.8-0.9l1.4,0.3l1.5-1l2-2.2l1.5-2.5l0.1-3.5l0.3-3.2v-3l-0.7-2l0.6-0.9l0.6-0.6l-0.9-6.3L469.1,123.4
			L469.1,123.4z"/>
		<path id="WY_1_" fill="#7F7F7F" stroke="#D1D3D4" stroke-width="0.25" d="M226.5,90.5l-6.8-0.5l-20.6-2.1l-10.4-1.3l-18.2-2.6
			L157.6,82l-0.9,7.2l-2.5,15.6l-3.4,19.6l-1,6.8l-1.1,7.6l4.2,0.6l16.6,1.6l13.2,1.5l23.7,2.6l15.3,1.8l2.9-28.4l0.9-16.3
			L226.5,90.5z"/>
		<path id="MT_1_" fill="#7F7F7F" stroke="#D1D3D4" stroke-width="0.25" d="M228.1,76.7l0.4-7.2l1.5-15.9c0.3-3.2,0.7-5.4,0.9-9.9
			l0.6-9.4l-19.7-1.8l-18.8-2.3l-18.8-2.6l-20.8-3.4L141.4,22l-21-4.5l-2.9,13.7l2.2,4.9l-0.9,2.9L120,42l2.1,0.9l3,6.9l1.7,2
			l0.3,0.7l2.2,0.7l0.3,1.3L125,65.9v1.6l1.6,2.1h0.6l3.1-1.9l0.4-0.7l1,0.4l-0.1,3.4l1.8,8.1l1.9,1.6l0.6,0.4l1.2,1.5l-0.3,2.2
			l0.4,2.2l0.7,0.6l1.5-1.5h1.8l2.1,1l1.6-0.6h2.6l2.4,1l1.8-0.3l0.3-1.9l1.9-0.4l0.9,0.9l0.3,2.1l1.1,0.9l1-7.4l13.3,1.9l18.1,2.5
			l10.6,1.2l20.2,2.2l7.1,1l0.7-9.9L228.1,76.7z"/>
		<path id="ID_1_" fill="#7F7F7F" stroke="#D1D3D4" stroke-width="0.25" d="M102.9,114.4c-14.5-2.8-9.1-1.8-13.6-2.8l2.8-11.3
			L95,88.9l0.9-2.7l1.6-3.8l-0.8-1.5L95.1,81l-0.5-0.7l0.3-0.7l0.2-2l2.9-3.5l1.2-0.3l0.7-0.7l0.4-2.1l0.6-0.4l2.5-3.7l2.5-2.8
			l0.1-2.4l-2.2-1.7l-0.8-2.8l0.3-6.2l2.4-10.6l2.9-13.4l2.4-8.7l0.5-2.4l8.4,1.6L117,31.2l1.9,5l-0.7,2.9l1.3,2.9l2.1,1.1l2.9,6.3
			l1.7,2.5l0.4,0.7l2.2,0.7L129,55l-4.5,10.8l0.2,2.1l1.7,1.9l1.2,0.3l3.1-2.3l0.2-0.3l0.1,0.5l0.2,2.7L133,79l2.2,1.7l0.3,0.5
			l1.4,1.6l-0.5,1.8l0.4,2.4l1.3,0.6l1.4-1.1l1.7-0.3l2.2,1l1.6-0.4l2.4-0.1l2.6,1l1.8-0.2l0.6-1.5l1.6-1.1l0.5,1.1l0.4,1.4l1.5,1.6
			l-2.4,15.4l-3.3,18.7l-2.7-0.2l-5.3-1l-6.3-1.2l-7.8-1.5l-8.1-1.6l-5.5-1.2l-6-1.1L102.9,114.4z"/>
		<path id="TX_1_" fill="#7F7F7F" stroke="#D1D3D4" stroke-width="0.25" d="M228.3,212.4l14.6,0.7
			l20,0.7l-1.5,15.1l-0.2,11.7l0,1.3l2.8,2.5l1.1,0.5l1.2,0.2l0.4-0.8l0.6,0.6l1.1,0.3l1-0.5l0.7,0.3l-0.2,2.2l2.7,0.7l1.7,0.5
			l2.5,0.3l1.4,1.2l2.1-1l1.8,0.2l1.3,1.8l0.7,0.2l-0.1,1.3l2,0.8l1.8-1.2l1,0.2l1.5,0.1l0.3,1.2l3,1.3l1.7-0.1l1.3-2.6h0.2l0.7,1.2
			l2.9,0.6l2.1,0.8l2.1,0.5l1.4-0.5l0.5-1.6h2.4l1.2,0.5l2-1h0.4l0.2,0.7h2.7l1.5-0.8l1.1,0.2l0.9,1.2l1.9,1.1l2.3,0.7l1.8,0.9
			l1.6,1l2.1-0.6l1.2,0.6l0.3,6.5l0.2,6.2l0.4,6.1l0.3,2.6l1.7,3l0.7,2.6l2.5,4l0.4,1.9l0.3,0.6l-0.4,4.8l-1.7,2.8l0.6,1.8l-0.2,1.6
			l-0.5,4.7l-0.9,1.7l0.4,2.8l-3.6,1l-6.3,2.9l-0.6,1.2l-1.7,1.2l-1.4,0.9l-0.8,0.5l-3.6,3.4l-1.8,1.4l-3.4,2.1l-3.6,1.6l-4.1,2.2
			l-1.1,0.9l-3.7,2.3l-2.2,0.4l-2.5,3.5l-2.6,0.2l-0.6,1.2l1.5,1.2l-0.9,3.5l-0.8,2.9l-0.7,2.5l-0.5,2.9l0.5,1.6l1.1,4.5l0.6,4
			l1.1,1.8l-0.6,0.9l-2,1.2l-3.6-2.5l-3.5-0.7l-0.8,0.3l-2.1-0.4l-2.7-2l-3.3-0.7l-4.9-2.2l-1.4-2.5l-0.8-4.2l-2.1-1.2l-0.4-1.5
			l0.4-0.4l0.2-2.2l-0.8-0.4l-0.4-0.6l0.8-2.8l-1-1.5l-2.1-0.8l-2.2-2.8l-2.3-4.3l-2.7-1.7l0.1-1.2l-3.4-7.9l-0.5-2.7l-1.1-1.2
			l-0.1-0.9l-3.8-3.4l-1.7-2v-0.7l-1.7-1.4l-4.4-0.7l-4.8-0.4l-2-1.5l-2.9,1.1l-2.3,0.9l-1.5,2.1l-0.6,2.4l-2.8,4l-1.6,1.6l-1.7-0.6
			l-1.1-0.7l-1.2-0.4l-2.5-1.5v-0.4l-1.1-1.2l-3.3-1.4l-4.8-5l-1.5-3v-5.2l-2.1-4.2l-0.3-1.8l-1-0.6l-0.7-1.4l-3.2-1.4l-0.8-1
			l-4.6-5.1l-0.8-2.1l-3-1.5l-0.9-2.8l-1.7-1.9l-1.2-0.3l-0.4-3l5.1,0.4l18.7,1.8l18.7,1l1.5-15.3l2.5-35.7l1-12.1l0.9,0
			 M292.7,362.9l-0.4-4.6l-1.8-4.6l-0.4-4.5l1-5.3l2.1-4.4l2.2-3.5l2-2.3l0.4,0.2l-3.1,4.3l-2.8,4.2l-1.3,4.3l-0.2,3.3l0.6,4
			l1.7,4.6l0.3,3.3l0.1,0.9L292.7,362.9L292.7,362.9z"/>
		<path id="AZ_1_" fill="#7F7F7F" stroke="#D1D3D4" stroke-width="0.25" d="M87.3,247.2l-1.7,1.4
			l-0.2,0.9l0.3,0.6l12.2,6.9l7.8,4.9l9.5,5.5l10.8,6.4l7.9,1.6l16.2,1.7l1.6-8l2.4-17.5l4.5-34l2.7-19.9l-15.8-2.4l-17.5-2.9
			l-21.5-4.1l-1.9,11.6l-0.3,0.3l-1.1,1.7l-1.6-0.1l-0.8-1.8l-1.8-0.2l-0.6-0.7h-0.6l-0.6,0.4l-1.2,0.7l-0.1,4.5l-0.1,1.1l-0.4,8.1
			l-1,1.4l-0.4,2.1l1.8,3.2l0.8,3.7l0.5,0.7l0.7,0.4l-0.1,1.5l-1,0.9l-2.2,1.1l-1.2,1.2l-1,2.4l-0.4,3.2l-1.8,1.8l-1.3,0.4l-0.1,3.7
			l-0.3,1.1l0.3,0.5l2.4,0.4l-0.4,1.8l-1,1.4L87.3,247.2L87.3,247.2z"/>
		<path id="NV_1_" fill="#7F7F7F" stroke="#D1D3D4" stroke-width="0.25" d="M89.1,112.2l13.5,2.9
			l6.2,1.2l6,1.2l4.3,1.1l-0.4,3.8l-2.3,11.1l-2.6,12.8l-1.2,6.3l-1.4,8.5l-2,10.6l-2.3,10.1l-1.3,6.5l-1.6,10.8l-0.3,0.7l-0.7,1.6
			l-1.2-0.1l-0.7-1.8l-1.8-0.3l-0.9-0.6l-1.3,0.2l-0.6,0.5l-0.8,0.9l-0.3,4.5l-0.4,1.1l-0.3,7.8l-0.9,1.1l-1.2-1.5l-9.3-14.6
			L71,179.9l-14.6-21.8l-8-12l1.1-4.2l4.5-16.7l5.1-20.2l21.6,5.2l8.8,1.9"/>
		<path id="UT_1_" fill="#7F7F7F" stroke="#D1D3D4" stroke-width="0.25" d="M161.4,196.9
			l-15.8-2.2l-17.1-3.1l-21.8-3.9l1-5.9l2.1-9.8l2.1-10.7l1.4-8.7l1.2-5.7l2.4-13.2l2.3-11.2l0.7-3.6l8.2,1.5l7.7,1.3l6.6,1.2
			l5.4,0.9l2.4,0.3l-1,6.8l-1.5,8.5l5,0.6l10.6,1.2l5.3,0.6l-1.4,14.1l-2.1,14.5l-2.4,17.9l-1.1,7.1L161.4,196.9L161.4,196.9z"/>
		<path id="CO_1_" fill="#7F7F7F" stroke="#D1D3D4" stroke-width="0.25" d="M242.2,163.2l0.9-13.7l-20.6-2l-15.7-1.7l-24-2.6
			l-13.3-1.6l-1.7,14.3l-2.1,14.4l-2.4,18l-1,7.1l-0.2,1.8l21.8,2.4l24.3,2.7l20.6,2l10.7,0.5"/>
		<path id="NM_1_" fill="#7F7F7F" stroke="#D1D3D4" stroke-width="0.25" d="M180.5,275.2l-0.4-3.9l5.6,0.3l19,2l18.3,0.9l1.3-14.4
			l2.4-35.9l0.7-12.5l1.3,0.2l0-7.1l-20.7-1.5l-23.8-2.8l-22.2-2.6l-2.7,19.8l-4.5,34.2l-2.4,17.3l-1.3,8.6l9.9,1.3l0.8-6.4
			l10.7,1.7L180.5,275.2z"/>
		<path id="ND_1_" fill="#7F7F7F" stroke="#D1D3D4" stroke-width="0.25" d="M301.8,80.1l-0.2-4.8l-1.3-4.7l-1.2-8.8l-0.3-6.3l-1.3-2
			l-1-3.4v-6.6l0.4-2.5l-1.4-3.5L277.3,37l-12-0.4l-17-0.8l-16-1.2l-0.8,9.2l-0.9,9.7l-1.5,16l-0.3,7.1l36.5,2.4L301.8,80.1z"/>
		<path id="SD_1_" fill="#7F7F7F" stroke="#D1D3D4" stroke-width="0.25" d="M302.7,128.7l-0.6-0.7l-1-2.3l1.2-2.4l0.7-3.6l-1.7-1.3
			l-0.2-1.8l0.4-1.9l1.4-0.5l0.2-3.7l0-19.3l-0.4-1.9l-2.6-2.3l-0.6-1.3v-1.2l1.2-0.8l1-1.2l0.1-1.7l-36.9-1l-36.1-2.5l-0.5,3.4
			l-1,10.2l-0.9,11.5l-1,15.8l10.3,0.7l12.6,0.7l11.6,0.8l15.3,0.8l6.9-0.5l1.8,1.5l2.8,1.9l0.6,0.5l2.3-0.6l2.6-0.2l1.8,0l2,0.8
			l2.9,0.9l2,1.1l0.4,1.2l0.6,1.2l0.5-0.3L302.7,128.7z"/>
		<path id="NE_1_" fill="#7F7F7F" stroke="#D1D3D4" stroke-width="0.25" d="M310.1,156.9l0.9,1.7l0.1,1.4l1.5,2.4l1.7,2h-3.2
			l-28-0.6l-26.2-0.6l-13.6-0.6l0.7-13.7l-21.5-1.8l2.8-28.3l10,0.7l12.9,0.7l11.5,0.7l15.3,0.7l6.9-0.3l1.3,1.5l3.1,1.9l0.7,0.6
			l2.8-0.9l2.5-0.3l1.8-0.1l1.2,0.9l3.2,1l1.9,1l0.3,1l0.6,1.3h1.2l0.5,0l0.6,3.4l1.8,5.2l0.8,3l1.4,2.5l0.3,3.2l0.9,2.7l0.4,4.2"/>
		<path id="IA_1_" fill="#7F7F7F" stroke="#D1D3D4" stroke-width="0.25" d="M363.1,127.7l0.1,1.2
			l1.5,0.7l0.7,0.8l0.2,0.8l2.5,2.1l0.4,1.4l-0.5,1.8l-1,2.3l-0.5,1.8l-1.4,1l-1.1,0.4l-3.5,1l-0.4,1.5l-0.5,1.5l0.4,0.9l1.1,1.1
			l0,2.4l-1.4,1l-0.3,1v1.6l-1,0.3l-1.1,0.9l-0.3,1l0.3,1.1l-0.9,0.8l-1.5-1.7l-1-1.7l-5.4,0.5l-6.5,0.4l-16.1,0.4l-8.4,0.1l-6,0.1
			l-0.8,0.1l-1.1-2.9l-0.1-4.3l-1-2.6L308,143l-1.5-2.4l-0.6-3.1l-1.8-4.9l-0.7-3.5l-0.9-1.4l-1-1.8l1.2-2.8l0.9-3.7l-1.8-1.3
			l-0.3-1.8l0.6-1.6h1.1h7.4l31.9-0.4l12.8-0.4l1.2,1.8l1.2,1.7l0.3,0.5l-1.2,1.8l0.3,2.7l1.6,2.5l1.9,1.2l1.5,0.1L363.1,127.7
			L363.1,127.7z"/>
		<path id="MS_1_" fill="#7F7F7F" stroke="#D1D3D4" stroke-width="0.25" d="M400.3,298.3l-0.2,0.8h-3.3l-0.9-0.5l-1.4-0.2l-4.4,1.2
			l-1.1-0.5l-1.7,2.7l-0.7,0.5l-0.7-1.6l-0.7-2.5l-2.2-2.1l0.7-4.9l-0.4-0.6l-1.2,0.1l-5.3,0.4l-15.6,0.4l-0.3-1l0.4-5.1l2.2-4
			l3.4-5.9l-0.6-1.3h0.7l0.4-2.1l-1.5-1.2l0.1-1.2l-1.3-2.9l-0.2-3.4l0.9-1.7l-0.3-2.8l-0.9-1.9l0.9-0.9l-0.9-1.3l0.3-1.2l0.6-4
			l1.9-1.8l-0.4-1.3l2.4-3.4l1.8-0.6v-1.6l-0.4-0.9l1.8-3.4l1.8-0.7l0.1-2.2l5.6,0l15.5-1.2l2.9-0.1l0,4.1l0.1,10.7l-0.5,20l-0.1,9
			l1.8,12.1L400.3,298.3z"/>
		<path id="IN_1_" fill="#7F7F7F" stroke="#D1D3D4" stroke-width="0.25" d="M396.4,191.5l0-1.8l0.3-2.9l1.5-1.9l1.1-2.5l1.7-2.7
			l-0.3-3.7l-1.1-1.8l-0.2-2.1l0.5-3.5l-0.3-4.5l-0.8-10.3l-0.8-9.9l-0.6-7.5l2,0.6l0.9,0.6l0.7-0.2l1.4-1.2l1.8-1l3.3-0.1l14.1-1.5
			l3.6-0.3l1,10.3l2.7,23.7l0.4,3.7l-0.2,1.5l0.8,1.2l0.1,0.9l-1.6,1l-2.3,1l-2.1,0.4l-0.4,3.1l-2.9,2.1l-1.8,2.6l0.2,1.5l-0.4,1
			h-2.1l-1-1l-1.6,0.8l-1.7,1l0.1,2l-0.8,0.2l-0.3-0.7l-1.4-1l-2.1,0.9l-1,1.9l-0.9-0.5l-0.9-1l-2.9,0.3l-3.6,0.6L396.4,191.5z"/>
		<path id="MO_1_" fill="#7F7F7F" stroke="#D1D3D4" stroke-width="0.25" d="M356.1,158.5l-1.6-2
			l-0.7-1.5l-5,0.4l-6.3,0.3l-16.3,0.6l-8.7,0.1l-5.1,0.1l-1.5,0.1l0.8,1.6l-0.1,1.5l1.6,2.5l2,2.6l2,1.8l1.5,0.1l0.9,0.6v1.9
			l-1.2,1l-0.3,1.5l1.3,2.2l1.6,1.9l1.6,1.2l0.9,7.5l-0.4,22.7l0.1,3l0.3,3.5l15.1-0.1l14.9-0.4l13.4-0.5l7.5-0.1l1.4,2.2l-0.4,2.1
			l-2,1.5l-0.4,1.2l3.5,0.3l2.5-0.4l1.1-3.5l0.4-3.8l1.5-1.3l1.1-1l1.3-0.7l0.1-1.8l0.4-1.1l-0.7-1.1l-1.8,0.1l-1.4-1.7l-0.9-2.7
			l0.5-1.6l-1.3-2.2l-1.2-2.9l-3.1-0.5l-4.5-3.6l-1.1-2.6l0.5-2.1l1.3-3.9l0.3-1.8l-1.3-0.7l-4.4-0.5l-0.7-1.1l-0.1-2.7l-3.5-2.2
			l-4.5-5l-1.5-4.7l-0.1-2.7L356.1,158.5L356.1,158.5z"/>
		<path id="AR_1_" fill="#7F7F7F" stroke="#D1D3D4" stroke-width="0.25" d="M378.7,219.9l-2.5,0.6l-4-0.3l0.4-1.9l2.1-1.8l0.3-1.5
			l-1.2-1.9l-7.1,0.3l-13.4,0.6l-15,0.4l-15,0.3l1,4.4v5.3l0.9,7.1l0.1,24.3l1.5,1.2l1.9-0.9l1.8,0.7l0.3,6.6l14.7-0.1l12.1-0.5
			l6.5-0.1l0.7-1.3l-0.2-2.3l-1.2-1.9l1-1l-1-1.6l0.4-1.6l0.9-3.6l1.6-1.3l-0.4-1.5l2.4-3.5l1.8-0.9l-0.1-1l-0.2-1.2l1.8-3.6
			l1.5-0.8l0.2-2.2l1.1-0.8l0.6-2.7l-0.9-2.6l2.6-1.5l0.4-1.3l0.8-2.7L378.7,219.9z"/>
		<path id="OK_1_" fill="#7F7F7F" stroke="#D1D3D4" stroke-width="0.25" d="M240.1,205.5l-6.9-0.3l-4.1-0.3l0.2,0.1l-0.5,6.7
			l14.1,0.9l20.6,0.8l-1.5,15.7l-0.3,11.5l0.1,1l2.8,2.4l1.3,0.7l0.4-0.1l0.4-1.3l0.9,1.2h1.3v-0.9l1.8,0.9l-0.3,2.5l2.6,0.1
			l1.6,0.7l2.6,0.4l1.6,1.2l1.5-1.3l2.2,0.4l1.6,2.2h0.6v1.5l1.5,0.4l1.5-1.5l1.2,0.4h1.6l0.6,1.6l3.1,1.2l0.9-0.4l1.2-2.6h0.7
			l0.7,1.3l2.6,0.4l2.4,0.9l1.9,0.6l1.2-0.6l0.4-1.6h2.8l1.3,0.6l1.8-1.3h0.7l0.4,1h2.6l1-1.3l1.2,0.3l1.3,1.6l2.1,1.2l2.1,0.6
			l1.2,0.7l-0.3-23.9l-0.9-7.1l-0.1-5.7l-0.9-4.2l-0.5-4.6l0-2.5l-7.8,0.2l-29.8-0.3l-29-1.3L240.1,205.5z"/>
		<path id="KS_1_" fill="#7F7F7F" stroke="#D1D3D4" stroke-width="0.25" d="M322.4,207.1l-8.1,0.1l-29.6-0.3l-28.7-1.3l-15.8-0.8
			l2.7-41.6l14,0.5l26,0.9l28.4,0.3h3.3l2.1,2.1l1.8,0.1l0.6,0.7v1.3l-1.2,1l-0.3,1.7l1.4,2.3l1.6,2l1.6,1.3l0.7,7.2L322.4,207.1z"
			/>
		<path id="LA_1_" fill="#7F7F7F" stroke="#D1D3D4" stroke-width="0.25" d="M386,302.2l-0.7-1.7
			l-0.7-2l-2.1-2.3l0.6-4.3l-0.1-0.7l-0.8,0.2l-5.3,0.6l-16.1,0.3l-0.4-1.5l0.6-5.4l2.1-3.8l3.2-5.6l-0.4-1.5l0.8-0.4l0.3-1.3
			l-1.5-1.3l-0.1-1.2l-1.2-2.8l-0.3-3.8l-6.3,0.1l-12.4,0.6l-14.3,0l0,6.2l0.4,6l0.4,2.5l1.6,2.6l0.6,3.2l2.8,3.5l0.1,2.1l0.4,0.4
			l-0.4,5.4l-1.9,3.2l1,1.3l-0.4,1.6l-0.4,4.7l-0.9,2.1l0.1,2.3l3-1l5.2-0.2l6.7,2.3l4.2,0.7l2.4-0.9l2.1,0.7l2.1,0.6l0.5-1.4
			l-2.1-0.7l-1.7,0.3l-1.8-1c0,0,0.1-0.8,0.5-0.9c0.4-0.1,2-0.6,2-0.6l1.1,0.9l1.1-0.6l2.1,0.4l0.9,1.6l0.2,1.5l2.9,0.2l1.1,1.1
			l-0.5,1l-0.8,0.5l1,1l5.4,2.3l2.3-0.8l0.6-1.6l1.7-0.4l1.1-0.9l0.8,0.6l0.5,1.9l-1.5,0.5l0.4,0.4l2.2-0.8l1.5-2.2l0.5-0.3
			l-1.4-0.2l0.5-1l-0.1-0.9l1.4-0.3l0.7-0.8l0.4,0.5c0,0-0.1,2,0.4,2c0.5,0,2.7,0.4,2.7,0.4l2.6,1.2l0.6,0.9h1.9l0.7,0.6l1.5-2v-0.9
			h-0.8l-2.2-1.8l-3.7-0.5l-2.1-1.5l0.7-1.8l1.5,0.2l0.1-0.4l-1.1-0.6v-0.3h2.1l1.1-2l-0.8-1.2l-0.2-1.8l-0.9,0.1l-1.2,1.4l-0.4,1.7
			l-2-0.4l-0.6-1.1l1.1-1.2l1.3-1.1L386,302.2L386,302.2z"/>
		<path id="VA_1_" fill="#7F7F7F" stroke="#D1D3D4" stroke-width="0.25" d="M531.8,171.2l-0.1-1.3l4.2-1.6l-0.5,2.1l-1.9,2.4
			l-0.3,2.9l0.3,2.2l-1.2,3.2l-1.4,1.2l-0.9-3l0.3-3.5l1-2.7L531.8,171.2z M533.2,189.4l-37.4,8.1l-24.1,3.4l-4.3-0.2l-1.7,1.2
			l-4.7,0.1l-5.4,0.6l-5.7,0.6l5.5-3.2l0-1.3l1-1.4l6.8-7.4l2.5,2.9l2.4,0.6l1.6-0.7l1.4-0.8l1.6,0.9l2.5-0.9l1.2-2.9l1.7,0.3
			l1.8-1.4l1.2,0.3l1.8-2.4l0.2-1.3l-0.6-0.8l0.6-1.2l3.4-7.9l0.4-3.7l0.8-0.3l1.4,1.6l2.5-0.2l1.2-4.9l1.8-0.4l0.7-1.8l1.7-1.5
			l0.8-1.5l1-2.2l0.1-3.3l6.3,2.5c0.4,0.2,0.4-3.1,0.4-3.1l2.6,0.9l-0.3,1.7l5.2,1.9l0.8,1.2l-0.6,2.4l-0.8,0.9l-0.3,1.1l0.3,1.5
			l1.3,0.8l2.5,0.9l1.9,0.6l3.1,0.6l1.4,1.3l2.1,0.3l0.6,0.8l-0.3,3l0.9,0.7l-0.3,1.2l0.8,0.5l-0.1,0.9l-1.7-0.1l0.1,1l1.5,1
			l0.1,0.9l1.1,1.1l0.3,1.6l-1.6,0.9l1,1l3.7-1.1L533.2,189.4z"/>
	</g>
	<g id="layer2">
		<path id="HI_1_" fill="#7F7F7F" d="M148.6,332l1.2-2.3l1.5-0.2l0.2,0.5l-1.4,2H148.6z M155.1,329.6l4,1.7l1.4-0.2l1-2.5l-0.4-2.2
			l-2.7-0.3l-2.6,1.1L155.1,329.6z M174.9,336l2.4,3.5l1.6-0.2l0.7-0.3l0.9,0.8l2.4-0.1l0.6-0.9l-1.9-1.1l-1.2-2.4L179,333l-3.7,1.9
			L174.9,336z M187.9,341.8l0.8-1.2l3,0.6l0.4-0.3l4,0.4l-0.2,0.8l-1.7,0.9l-2.8-0.2L187.9,341.8z M191.3,345.1l1.2,2.5l2-0.7l0.2-1
			l-1-1.4l-2.4-0.2V345.1z M195.8,344.4l1.5-1.9l3,1.6l2.8,0.7l2.8,1.8v1.2l-2.3,1.1l-3.1,0.6l-1.6-0.9L195.8,344.4z M206.5,354.3
			l1-0.8l2.2,1l4.9,2.3l2.2,1.4l1,1.6l1.2,2.8l2.6,1.7l-0.2,0.8l-2.5,2.1l-2.7,0.9l-0.9-0.4l-2,1.1l-1.6,2.1l-1.5,1.9l-1.1-0.1
			l-2.3-1.7l-0.2-2.9l0.4-1.6l-1-3.6l-1.4-1.1l-0.1-1.7l1.5-0.6l1.4-2l0.3-0.6l-1-1.1L206.5,354.3z"/>
		<path id="RI_1_" fill="#7F7F7F" stroke="#D1D3D4" stroke-width="0.25" d="M560.8,113.7l-0.3-2.7l-0.5-2.8l-1.1-3.8l3.7-1l1,0.7
			l2.2,2.8l1.9,2.9l-1.9,1l-0.8-0.1l-0.7,1.1l-1.6,1.2L560.8,113.7z"/>
		<path id="CT_1_" fill="#7F7F7F" stroke="#D1D3D4" stroke-width="0.25" d="M560.2,113.8l-0.4-2.7l-0.5-2.8l-1-3.8l-2.7,0.6l-14,3.1
			l0.4,2.1l0.9,4.7v5.2l-0.7,1.5l1.2,1.4l3.2-2.2l2.3-2.1l1.2-1.4l0.5,0.4l1.8-0.9l3.3-0.7L560.2,113.8z"/>
		<path id="MA_1_" fill="#7F7F7F" stroke="#D1D3D4" stroke-width="0.25" d="M577.5,109.8l1.4-0.4
			l0.3-1.1l0.7,0.1l0.7,1.5l-0.8,0.3l-2.5,0.1L577.5,109.8L577.5,109.8z M571.4,110.3l1.5-1.7h1l1.2,1l-1.5,0.7l-1.4,0.7
			L571.4,110.3L571.4,110.3z M549.1,96.2l11.2-2.7l1.5-0.4l1.4-2.1l2.4-1.1l1.9,2.8l-1.6,3.3l-0.2,0.9l1.2,1.7l0.7-0.5h1.1l1.5,1.7
			l2.5,3.8l2.3,0.3l1.5-0.6l1.1-1.1l-0.5-1.8l-1.4-1l-0.9,0.5l-0.6-0.8l0.3-0.3l1.4-0.1l1.1,0.5l1.2,1.6l0.6,1.9l0.2,1.6l-2.7,0.9
			l-2.5,1.2l-2.5,2.9l-1.2,0.9v-0.6l1.6-0.9l0.3-1.1l-0.5-2l-1.9,0.9l-0.5,0.9l0.3,1.5l-1.3,0.6l-1.8-2.9l-2.2-2.8l-1.3-1.2
			l-4.2,1.2l-3.3,0.7l-14,3.1l-0.3-3.2l0.4-6.8l3.3-0.6L549.1,96.2L549.1,96.2z"/>
		<path id="ME_1_" fill="#7F7F7F" stroke="#D1D3D4" stroke-width="0.25" d="M592.4,47.8l1.2,1.4l1.5,2.4v1.2l-1.4,3l-1.2,0.4l-2.2,2
			l-3.1,3.5c0,0-0.4,0-0.8,0s-0.6-1.4-0.6-1.4l-1.1,0.1l-0.6,0.9l-1.6,0.9l-0.6,0.9l1,0.9l-0.3,0.4l-0.3,1.8l-1.2-0.1v-1l-0.2-0.8
			l-0.9,0.2l-1.1-2.1l-1.4,0.8l0.8,0.9l0.2,0.7l-0.5,0.8l0.2,2l0.1,1l-1,1.7l-1.9,0.3l-0.2,1.9l-3.4,2l-0.8,0.3l-1-0.9l-2,2.3
			l0.6,2.1l-0.9,0.8l-0.1,2.8l-0.7,4l-1.6-0.7l-0.3-2l-2.5-0.7l-0.2-1.8l-4.7-15.1l-2.7-8.8l0.9-0.1l1,0.3v-1.7l0.5-3.5l1.7-3
			l0.9-2.6l-1.2-1.6V41l0.5-0.6l0.5-1.8l-0.1-0.9l-0.1-3.1l1.1-3.1l1.9-5.7l1.4-2.7h0.8l0.8,0.1v0.7l0.8,1.5l1.8,0.4l0.5-0.5v-0.6
			l2.6-1.9l1.1-1.1l0.9,0.1l3.8,1.6l1.2,0.6l5.8,19.2h3.8l0.5,1.2l0.1,3.1l1.9,1.5h0.5l0.1-0.3l-0.3-0.7L592.4,47.8z M578.9,67.1
			l1-1l0.9,0.7l0.4,1.6l-1.1,0.6L578.9,67.1z M583.3,63.3l1.1,1.2c0,0,0.8,0.1,0.8-0.2s0.2-1.3,0.2-1.3l0.6-0.5l-0.5-1.1l-1.3,0.5
			L583.3,63.3z"/>
		<path id="NH_1_" fill="#7F7F7F" stroke="#D1D3D4" stroke-width="0.25" d="M565.1,89.6l0.6-0.7l0.7-2.1l-1.6-0.6l-0.3-2l-2.5-0.7
			l-0.2-1.8l-4.7-15.1l-3-9.4l-0.6,0l-0.4,1l-0.4-0.3l-0.6-0.6l-0.9,1.2l0,3.2l0.2,3.6l1.2,1.8v2.6l-2.4,3.3l-1.7,0.7v0.7l0.7,1.1
			v5.5l-0.5,5.9l-0.1,3.1l0.6,0.8l-0.1,2.9l-0.3,1.1l0.9,0.6l10.5-3l1.5-0.4l1-1.6L565.1,89.6z"/>
		<path id="VT_1_" fill="#7F7F7F" stroke="#D1D3D4" stroke-width="0.25" d="M541.7,96.9l-0.5-3.6l-1.5-6.4l-0.4-0.2l-1.9-0.8
			l0.5-1.9l-0.5-1.4l-1.7-3l0.6-2.5l-0.5-3.3l-1.6-4.2l-0.5-3.2l16.9-4.3l0.2,3.7l1.2,1.8v2.6l-2.4,2.6l-1.7,0.7v0.7l0.7,1.1v5.5
			l-0.5,5.9L548,90l0.6,0.8l-0.1,2.9l-0.3,1.1l0.4,1l-4.5,0.9L541.7,96.9z"/>
		<path id="NY_1_" fill="#7F7F7F" stroke="#D1D3D4" stroke-width="0.25" d="M531.6,119.8l-0.7-0.6
			l-1.7-0.1l-1.5-1.2l-1-3.9l-2.2,0.1l-1.6-1.7l-12.5,2.8l-27.7,5.6l-4.8,0.8l-0.5-4.2l0.9-0.7l0.8-0.7l0.6-1l1.1-0.7l1.2-1.1l0.3-1
			l1.4-1.8l0.7-0.6l-0.1-0.6l-0.8-2l-1.1-0.1l-1.2-4l1.9-1.1l2.8-0.9l2.6-0.8l2.1-0.3l4.1-0.1l1.2,0.8l1,0.1l1.4-0.8l1.7-0.7
			l3.3-0.3l1.4-1.1l1.1-2.1l1-1.2h1.4l1.2-0.7l0.1-1.5l-0.9-1.4l-0.2-0.9l0.7-1.4v-0.9H508l-1.1-0.5l-0.5-0.7l-0.1-1.7l3.7-3.5
			l0.4-0.5l0.9-1.9l1.9-2.9l1.8-2.4l1.4-1.6l1.6-1.2l2-0.8l3.5-0.8l2.1,0.1l2.9-0.9l4.9-1.3l0.3,3.2l1.6,4.2l0.5,3.3l-0.6,2.5
			l1.7,2.9l0.5,1.4l-0.5,1.9l1.9,0.8l0.4,0.2l2,7.1l-0.3,3.3l-0.3,7l0.5,3.5l0.5,2.3l0.9,4.7v5.2l-0.7,1.5l1.2,1.3l0.5,1.1L542,125
			l0.2,0.8l0.8-0.2l0.9-0.8l1.5-1.7l0.7-0.4l1,0.4l1.5,0.1l5.1-2.5l1.9-1.8l0.8-0.9l2.7,1l-2.2,2.3l-2.5,1.9l-4.6,3.4l-1.7,0.6
			l-3.7,1.2l-2.6,0.7l-0.8-0.3l-0.2-2.4l0.3-1.8l-0.1-1.4l-1.8-1.1l-2.9-0.6L534,121L531.6,119.8L531.6,119.8z"/>
		<path id="NJ_1_" fill="#7F7F7F" stroke="#D1D3D4" stroke-width="0.25" d="M531.3,120.4l-1.4,1.6
			v2l-1.2,2l-0.1,1l0.8,0.8l-0.1,1.6l-1.5,0.7l0.5,1.8l0.1,0.7l1.8,0.2l0.6,1.7l2.3,1.6l1.6,1v0.5l-2.1,2l-1,1.5l-0.9,1.8l-1.5,0.8
			l-0.8,0.5l-0.2,0.8l-0.4,1.7l0.7,1.4l2.1,1.9l3.1,1.5l2.6,0.4l0.1,0.9l-0.5,0.6l0.2,1.8h0.5l1.4-1.6l0.5-3.1l1.8-2.6l2-4.2
			l0.7-3.5l-0.4-0.7l-0.1-6l-1-2.2l-0.7,0.5l-1.8,0.2l-0.3-0.3l0.7-0.6l1.4-1.2l0-0.7l-0.2-2.2l0.3-1.8l-0.1-1.4l-1.7-0.7l-2.9-0.6
			l-2.5-0.7L531.3,120.4L531.3,120.4z"/>
		<path id="PA_1_" fill="#7F7F7F" stroke="#D1D3D4" stroke-width="0.25" d="M527.4,143.7l0.7-0.4
			l1.5-0.4l0.9-1.8l1-1.5l2.1-2v-0.5l-1.6-1l-2.3-1.6l-0.6-1.7l-1.8-0.2l-0.1-0.7l-0.5-1.8l1.5-0.7l0.1-1.6l-0.8-0.8l0.1-1l1.2-2v-2
			l1.5-1.6l0.1-0.7l-1.7-0.1l-1.5-1.2l-1.6-3.4l-1.9-0.6l-1.5-1.4l-12,2.6l-27.7,5.6l-5.7,0.9l-0.3-4.6l-3.5,3.6l-0.8,0.3l-2.7,1.9
			l1.9,12.3l1.6,6.3l2.3,12.4l2.1-0.4l7.7-1l24.4-4.9l9.6-1.8l5.3-1l0.2-0.2l1.4-1L527.4,143.7L527.4,143.7z"/>
		<path id="DE_1_" fill="#7F7F7F" stroke="#D1D3D4" stroke-width="0.25" d="M527.5,146.2l0.4-1.4l0-0.8l-0.8-0.1l-1.4,1l-0.9,0.9
			l0.9,2.7l1.5,3.6l1.4,6.2l1,4.1l3.2-0.1l4-0.8l-1.5-4.7l-0.6,0.3l-2.3-1.6l-1.1-3l-1.2-2.3l-1.5-0.6l-1.4-2.3L527.5,146.2z"/>
		<path id="MD_1_" fill="#7F7F7F" stroke="#D1D3D4" stroke-width="0.25" d="M536.9,162.2L533,163l-3.7,0.1l-1.2-4.6l-1.4-6.2
			l-1.5-3.6l-0.8-2.8l-4.8,1l-9.6,1.8l-24.1,4.9l0.7,3.2l0.6,3.6l0.2-0.2l1.4-1.6l1.5-1.7l1.6-0.4l0.9-0.9l1.1-1.7l0.8,0.4l1.9-0.2
			l1.7-1.4l1.3-0.9l1.2-0.3l1.1,0.7l1.9,0.9l1.2,1.1l0.8,1l2.7,1.1v1.9l3.5,0.8l0.7,0.3l0.9-1.3l1.9,1.3l-0.8,1.6l-0.5,2.6l-1.1,1.7
			v1.4l0.4,1.1l3.3,0.9l2.8,0l2,0.6l1.4,0.2l0.6-1.4l-0.9-1.4v-1.1l-1.6-1.4l-1.4-3.5l0.8-3.4l-0.1-1.4l-0.8-0.8c0,0,0.9-1,0.9-1.5
			c0-0.4,0.3-1.4,0.3-1.4l1.2-0.8l1.2-1l0.3,0.6l-0.9,1l-0.8,2.4l0.2,0.7l1.1,0.2l0.3,3.5l-1.4,0.6l0.2,2.3l0.3-0.1l0.7-1.2l1,1.1
			l-1,0.8l-0.2,2.2l1.7,2.2l2.5,0.3l1-0.5l2.1,2.7l0.9,0.3l4.3-1.8l1.3-2.6L536.9,162.2z M526.2,168l0.7,1.6l0.1,1.1l0.7,1.2
			c0,0,0.6-0.6,0.6-0.8c0-0.2-0.5-2-0.5-2l-0.5-1.5L526.2,168z"/>
		<path id="MI_1_" fill="#7F7F7F" stroke="#D1D3D4" stroke-width="0.25" d="M372.7,50.8l1.2-1.3
			l1.4-0.5l3.5-2.5l1.5-0.4l0.3,0.3l-3.3,3.3l-2.1,1.2l-1.3,0.6L372.7,50.8L372.7,50.8z M428.1,71.5l0.4,1.6l2.1,0.1l0.8-0.8
			c0,0-0.1-0.9-0.3-1c-0.2-0.1-1-1.2-1-1.2l-1.4,0.2l-1,0.1l-0.2,0.7L428.1,71.5L428.1,71.5z M447.5,112l-2.1-5.3l-1.5-5.8l-1.6-2.1
			l-1.7-1.1l-1,0.7l-2.5,1.1l-1.2,3.2l-1.8,2.4l-0.7,0.4l-0.9-0.4c0,0-1.7-0.9-1.6-1.4c0.1-0.4,0.3-3.2,0.3-3.2l2.2-0.8l0.5-2.2
			l0.4-1.7l1.6-1l-0.2-6.4l-1-1.5l-0.8-0.5l-0.5-1.4l0.5-0.5l1,0.2l0.1-1l-1.6-1.5l-0.8-1.7h-1.7l-2.9-0.9l-3.5-2.2h-1.8l-0.4,0.4
			l-0.6-0.3l-2-1.5l-1.9,1.1l-1.9,1.5l0.2,2.3l0.6,0.2l1.4,0.3l0.3,0.5l-1.7,0.5l-1.7,0.2l-0.9,1.1l-0.2,1.4l0.2,1l0.2,3.5l-2.3,1.4
			l-0.4-0.1v-2.7l0.8-1.6l0.4-1.6l-0.5-0.5l-1.2,0.5l-0.6,2.7l-1.8,0.7l-1.1,1.2l-0.1,0.6l0.4,0.5l-0.4,1.7l-1.5,0.3v0.7l0.5,1.6
			l-0.7,4l-1,2.6l0.4,3l0.3,0.7l-0.5,1.6l-0.2,0.5l-0.2,1.8l2.3,3.8l1.9,4.2l0.9,3.1l-0.5,3l-0.6,3.8l-1.6,3.3l-0.2,1.8l-2.1,2
			l2.8-0.1l13.8-1.5l4.7-0.6l0.1,1.1l4.4-0.8l6.6-1l2.5-0.3l0.1-0.4l0.1-0.9l1.4-2.4l1.3-1.1l-0.1-3.2l1-1l0.7-0.2l0.1-2.3l1-1.9
			l0.7,0.4l0.1,0.4l0.5,0.1l1.2-0.6L447.5,112L447.5,112z M363.6,69.5l0.5-0.4l1.8-0.5l2.3-1.5v-0.6l0.4-0.4l3.8-0.6l1.6-1.2
			l2.8-1.4l0.1-0.8l1.2-1.9l1.1-0.5l0.8-1.1l1.5-1.5l2.8-1.6l3-0.3l0.7,0.7l-0.2,0.6l-2.4,0.6l-0.9,2l-1.5,0.5l-0.3,1.6l-1.6,2.1
			L381,65l0.5,0.3l0.6-0.7l2.3-1.9l0.8,0.8h1.5l2.1,0.6l0.9,0.7l0.9,2l1.8,1.8l2.5-0.1l0.9-0.6l1,0.8l1,0.3l0.8-0.5h0.7l1-0.6
			l2.6-2.3l2.2-0.7l4.3-0.2l2.9-1.2l1.7-0.8l0.9,0.1v3.6l0.3,0.2l1.9,0.5l1.2-0.3l4-1l0.7-0.7l0.9,0.3v4.5l2.1,2l0.8,0.4l0.8,0.6
			l-0.8,0.2l-0.5-0.2l-2.4-0.3l-1.4,0.4l-1.5-0.1l-2.1,0.9h-1.1l-3.7-0.8l-3.3,0.1l-1.2,1.7l-4.5,0.4l-1.6,0.5l-0.7,2l-0.8,0.7
			l-0.3-0.1l-0.9-1l-2.9,1.6h-0.4l-0.7-1l-0.5,0.1l-1.2,2.8l-0.6,2.6l-2,4.5l-0.8-0.7l-0.9-0.7l-1.2-6.6l-2.3-0.9l-1.3-1.5l-7.8-1.8
			l-1.8-0.7l-5.3-1.4l-5.1-0.7L363.6,69.5L363.6,69.5z"/>
		<path id="WA_1_" fill="#7F7F7F" stroke="#D1D3D4" stroke-width="0.25" d="M58.9,2.1L61.7,3
			l6.2,1.8l5.5,1.2l12.9,3.6l14.8,3.6l9.7,2.2l-0.6,2.5l-2.6,8.9l-2.9,13.4l-2,10.4l-0.2,6l-8.5-2.5l-10-2.2l-8.8,0.4l-1-1l-3.4,1.2
			l-2.6-0.2l-1.8-1.1l-1,0.3l-2.7-0.1l-1.2-0.9l-3.1-1.1l-0.9-0.1l-3.2-0.9l-1.1,1l-3.7-0.2l-3.1-2.4l0.1-0.5l0-5.1l-1.4-2.5
			l-2.6-0.5l-0.2-1.5l-1.6-0.4L38.8,36l-1.1,0.6l-1.5-1.9l0.2-1.9l1.8-0.2l1-2.6l-1.7-0.7l0.1-2.4l2.8-0.4l-1.8-1.8l-0.9-4.6
			l0.4-1.9v-5.1L37,11.2l1.5-6l1.4,0.3l1.6,1.9L43.2,9l2.1,1.2l2.9,1.4l2,0.4l1.9,0.9l2.2,0.6l1.5-0.1v-1.6l0.8-0.7l1.4-0.8l0.2,0.7
			l0.2,1.1l-1.5,0.3l-0.2,1.4l1.1,0.9l0.7,1.6l0.4,1.2l0.9-0.1l0.1-0.8l-0.6-0.8L59,13.8l0.5-1.1l-0.4-0.9v-1.5l1.1-2.3l-0.7-1.7
			l-1.6-3.1l0.2-0.5L58.9,2.1L58.9,2.1z M52.8,6l1.3-0.1l0.3,0.9l1-1h1.5l0.5,1l-1,1.1l0.4,0.5l-0.5,1.3l-0.9,0.3
			c0,0-0.6,0.1-0.6-0.2c0-0.2,0.9-1.7,0.9-1.7l-1.1-0.4l-0.2,0.9L54.1,9l-1-1.5L52.8,6z"/>
		<path id="CA_1_" fill="#7F7F7F" stroke="#D1D3D4" stroke-width="0.25" d="M86.6,246.7l2.5-0.3l1-1.3l0.5-1.2l-2-0.1l-0.7-1.1
			l0.5-1.1l0-4l1.4-0.9l1.7-1.7l0.3-3.2l1.1-2.2l1.2-1.4l2.1-1.1l0.8-0.5l0.5-1l-0.6-0.6l-0.6-1l-0.6-3.4l-1.9-3.4l0.1-1.8l-1.4-2.1
			l-9.6-14.9l-12.5-18.5L55.8,159l-8.2-12.6l1.2-4.6l4.4-16.7l5.2-20.2l-8-2.1l-8.7-2.2l-8.1-2.6l-4.9-1.3l-7.4-1.9l-4.5-1.6l-1,3
			l-0.1,4.8l-3.3,7.6l-2,1.7l-0.2,0.7l-1.1,0.5l-0.9,2.7l-0.5,2.1l1.8,2.7l1,2.7l0.7,2.3L11,128l-1.1,2l-0.4,3.7l-0.6,2.4l1.1,2.5
			l1.8,2.9l1.5,3.1l0.8,2.6l-0.2,2.1l-0.2,0.3v1.4l3.6,4.1l-0.3,1.6l-0.4,1.5l-0.4,1.2l0.1,5.3l1.4,2.4l1.2,1.7l1.8,0.3l0.6,1.8
			l-0.7,2.3l-1.4,1h-0.7l-0.5,2.5l0.3,1.9l2.1,2.8l1,3.4l0.9,3l0.8,2l2.2,3.7l0.9,1.7l0.3,1.9l1,0.6v1.6l-0.5,1.2l-1.1,4.6l-0.3,1.2
			l1.6,1.8l2.7,0.3l2.9,1.1l2.5,1.4h1.9l1.9,2l1.7,3.1l0.7,1.5l2.5,1.4l3.1,0.5l0.9,1.4l0.4,2.1l-0.9,0.4l0.2,0.6l2.1,0.5l1.8,0.1
			l1.9,3l2.5,2.7l0.5,1.5l1.7,2.7l0.2,2.1v6l0.3,1.1l6.4,0.9l12.7,1.8L86.6,246.7z M30.1,214.8l0.8,1l-0.1,0.8l-2.1-0.1l-0.4-0.8
			l-0.4-0.9L30.1,214.8z M31.3,214.8l0.8-0.4l2.3,1.4l2,0.8l-0.6,0.4l-2.9-0.2l-1-1L31.3,214.8z M44.6,227.5l1.1,1.5l0.5,0.6l1,0.4
			l0.4-0.9l-0.6-1.1l-1.7-1.3l-0.7,0.1V227.5z M43.7,233.1l1.1,2l0.8,1.2l-0.9,0.2l-0.8-0.8c0,0-0.5-0.9-0.5-1.2s0-1.4,0-1.4
			L43.7,233.1z"/>
		<path id="OR_1_" fill="#7F7F7F" stroke="#D1D3D4" stroke-width="0.25" d="M88.9,111.6l2.8-11.5l3-11.5l0.7-2.7l1.5-3.6l-0.4-0.7
			l-1.6,0L94,80.5l0.3-0.9l0.3-2.1l2.9-3.5l1.2-0.7l0.7-0.7l1-2.3l2.6-3.6l2.3-2.5l0.1-2.2l-2.1-1.6l-0.8-2.9L94,54.9l-9.7-2.3
			l-9.9,0.1l-0.3-0.9l-3.5,1.3l-2.9-0.4l-1.5-1l-0.8,0.4l-3-0.1l-1.1-0.9l-3.4-1.3l-0.5,0.1l-2.8-1l-1.2,1.2l-4-0.2l-3.8-2.6
			l0.4-0.5l0.1-5l-1.5-2.5L42,38.9l-0.4-1.6L40,37l-3.7,1.3l-1.5,4.2l-2.1,6.4l-2.1,4.2l-3.2,9l-4.2,8.7l-5.2,8.1l-1.2,1.9l-0.5,5.5
			l-0.8,3.8l1.7,2.3l4.3,1.4L29,96l5.1,1.6l8,2.3l8.6,2.3l8.5,2.3"/>
		<path id="IL_1_" fill="#7F7F7F" stroke="#D1D3D4" stroke-width="0.25" d="M396,192v-2.3l0.2-3.1
			l1.5-2l1.1-2.4l1.7-2.5l-0.2-3.4L399,174l-0.1-2.2l0.4-3.4l-0.5-4.6l-0.7-10.1l-0.8-9.7l-0.6-7.5l-0.2-0.6l-0.5-1.7l-0.8-2.4
			l-1-1.1l-0.9-1.7l-0.2-3.5l-6.4,0.8l-17.5,1.1l-5.6-0.3l0.1,1.5l1.5,0.4l0.6,0.7l0.3,1.2l2.5,2.2l0.4,1.5l-0.4,2.2l-1.2,2.4
			l-0.4,1.6l-1.5,1.2l-1.2,0.4l-3.4,0.9l-0.4,1.2l-0.4,1.3l0.4,0.9l1.2,1l-0.1,2.6l-1.2,1l-0.4,1v1.8l-1.2,0.3l-1,0.7l-0.1,0.9
			l0.1,1.3l-1.1,0.8l-0.7,1.8l0.3,2.4l1.5,4.7l4.7,4.9l3.5,2.4l-0.1,2.8l0.6,0.9l4.1,0.3l1.8,0.9l-0.4,2.4l-1.5,3.8l-0.4,2.1
			l1.5,2.5l4.1,3.4l2.9,0.4l1.3,3.2l1.3,2.1l-0.6,1.9l1,2.6l1.2,1.3l1.3-0.5l0.4-1.4l1.3-0.9l2.1-0.7l2,0.8l1.8,0.7l0.5-0.1l0-0.8
			l-0.7-1.8l0.3-1.5l1.5-1l1.5-0.6l0.7-0.3l-0.4-0.9l-0.5-1.4l0.8-0.8L396,192L396,192z"/>
		<path id="MN_1_" fill="#7F7F7F" stroke="#D1D3D4" stroke-width="0.25" d="M302.2,80.6l-0.3-5.4l-1.2-4.7l-1.2-8.7l-0.3-6.3
			l-1.2-2.2l-1-3.2v-6.6l0.4-2.5l-1.2-3.5l19.4,0l0.2-5.3l0.4-0.1l1.5,0.3l1.2,0.5l0.5,3.5l0.9,4l1,1h3.1l0.2,0.9l4.1,0.2v1.4h3.1
			l0.2-0.8l0.7-0.7l1.5-0.4l0.8,0.6h1.9l2.5,1.7l3.4,1.6l1.6,0.3l0.3-0.6l0.9-0.3l0.3,1.9l1.7,0.8l0.3-0.3l0.8,0.1V49l1.7,0.6h2
			l1-0.5l2.1-2.1l1.7-0.3l0.5,1.1l0.3,0.8h0.6l0.6-0.5l5.7-0.2l1.1,2h0.4l0.5-0.7L370,49l-0.4,1.5l-2.5,1.2l-5.9,2.6l-3.1,1.3
			l-2,1.7l-1.6,2.3l-1.5,2.5l-1.1,0.5l-2.9,3.2l-0.8,0.1l-2.5,1.9l-1.8,2l-0.1,1.9l0.1,5l-1,1l-3.4,2.6l-1.2,3.7l1.6,2.3l0.3,1.6
			l-0.7,1.9l-0.1,2.4l0.3,4.6l2.2,2.6h1.9l1.6,1.5l2.1,0.9l2.4,3.2l4.6,3.2l1.2,1.3l0.2,3.5l-13.2,0.4l-38.7,0.3l-0.2-22.9l-0.3-1.9
			l-2.6-2.2l-0.7-1.2v-1l1.3-1l0.9-0.9L302.2,80.6z"/>
		<path id="WI_1_" fill="#7F7F7F" stroke="#D1D3D4" stroke-width="0.25" d="M392.9,124.8l0.2-1.9l-1-2.9l-0.4-4l-0.7-1.6l0.6-2
			l0.5-1.9l0.9-1.7l-0.4-2.2l-0.4-2.3l0.3-1.1l1.2-1.6l0.1-1.8l-0.5-0.8l0.4-1.7l0.3-2.1l1.8-3.6l1.9-4.4l0.1-1.5l-0.2-0.6l-0.5,0.3
			l-2.7,4.1l-1.8,2.6l-1.2,1.1l-0.5,1.5l-0.9,0.5l-0.7,1.2l-0.9-0.2l-0.1-1.1l0.8-1.6l1.4-3l1.1-1l0.7-1.5l-1-0.6l-0.9-0.9l-1-6.6
			l-2.4-0.7L386,78l-8.1-1.8l-1.6-0.7L371,74l-5.3-0.7l-2.7-3.5l-0.3,0.8l-0.7-0.1l-0.4-0.7l-1.8-0.5l-0.7,0.1l-1.1,0.6l-0.6-0.4
			l0.4-1.2l1.2-2l0.7-0.7l-1.2-0.9l-1.4,0.5l-1.9,1.2l-4.8,2.1l-1.9,0.4l-1.9-0.3l-0.6-0.6l-1.4,1.8l-0.1,1.8v5.4l-0.7,1l-3.4,2.5
			l-1.5,3.8l0.3,0.1l1.6,1.3l0.4,2.1l-1.2,2.1v2.5l0.3,4.3l1.9,1.9h2.2l1.2,2.1l2.2,0.3l2.5,3.7l4.6,2.6l1.3,1.8l0.6,4.8l0.4,2.1
			l1.5,1l0.1,0.9l-1.3,2.2l0.1,2.1l1.6,2.5l1.6,0.7l1.9,0.3l0.9,0.9l5.9,0l16.8-1L392.9,124.8z"/>
		<path id="DC" fill="#7F7F7F" stroke="#D1D3D4" stroke-width="0.25" d="M514.3,161.3l-0.7-1.1l-0.7-0.5l0.7-1l1.4,1L514.3,161.3z"
			/>

			<path id="path2578" fill="#7F7F7F" stroke="#D1D3D4" stroke-width="0.25" d="
			M518.1,165.5l-4-2l-3.8,2.3l0.7-4.5l-3.4-2.9l4.5-0.7l1.7-4.1l2.1,4l4.5,0.4l-3.2,3.2L518.1,165.5z"/>
	</g>
</g>
<g id="layer1">
	<text transform="matrix(1 0 0 1 75.8579 153.6514)" fill="#0E2647" font-family="'DroidSans-Bold'" font-size="16.0715px">6</text>
	<text transform="matrix(1 0 0 1 132.9341 168.3477)" fill="#0E2647" font-family="'DroidSans-Bold'" font-size="16.0715px">6</text>
	<text transform="matrix(1 0 0 1 185.0239 242.9463)" fill="#0E2647" font-family="'DroidSans-Bold'" font-size="16.0715px">5</text>
	<text transform="matrix(1 0 0 1 116.2134 102.1084)" fill="#0E2647" font-family="'DroidSans-Bold'" font-size="16.0715px">4</text>
	<text transform="matrix(1 0 0 1 65.9995 38.0185)" fill="#0E2647" font-family="'DroidSans-Bold'" font-size="16.0715px">12</text>
	<text transform="matrix(1 0 0 1 55.0659 85.6074)" fill="#0E2647" font-family="'DroidSans-Bold'" font-size="16.0715px">7</text>
	<text transform="matrix(1 0 0 1 33.8433 189.7891)" fill="#0E2647" font-family="'DroidSans-Bold'" font-size="16.0715px">55</text>
	<text transform="matrix(1 0 0 1 172.1099 62.4551)" fill="#0E2647" font-family="'DroidSans-Bold'" font-size="16.0715px">3</text>
	<text transform="matrix(1 0 0 1 184.9722 120.9775)" fill="#0E2647" font-family="'DroidSans-Bold'" font-size="16.0715px">3</text>
	<text transform="matrix(1 0 0 1 198.4771 180.1416)" fill="#0E2647" font-family="'DroidSans-Bold'" font-size="16.0715px">9</text>
	<text transform="matrix(1 0 0 1 115.5181 234.8057)" fill="#0E2647" font-family="'DroidSans-Bold'" font-size="16.0715px">11</text>
	<text transform="matrix(1 0 0 1 67.2857 322.2666)" fill="#0E2647" font-family="'DroidSans-Bold'" font-size="16.0715px">3</text>
	<text transform="matrix(1 0 0 1 166.3218 361.4961)" fill="#0E2647" font-family="'DroidSans-Bold'" font-size="16.0715px">4</text>
	<text transform="matrix(1 0 0 1 262.1431 292.6836)" fill="#0E2647" font-family="'DroidSans-Bold'" font-size="16.0715px">38</text>
	<text transform="matrix(1 0 0 1 288.5103 236.0918)" fill="#0E2647" font-family="'DroidSans-Bold'" font-size="16.0715px">7</text>
	<text transform="matrix(1 0 0 1 277.5776 193.0039)" fill="#0E2647" font-family="'DroidSans-Bold'" font-size="16.0715px">6</text>
	<text transform="matrix(1 0 0 1 262.7866 147.3447)" fill="#0E2647" font-family="'DroidSans-Bold'" font-size="16.0715px">5</text>
	<text transform="matrix(1 0 0 1 258.9282 107.4717)" fill="#0E2647" font-family="'DroidSans-Bold'" font-size="16.0715px">3</text>
	<text transform="matrix(1 0 0 1 258.9282 64.3848)" fill="#0E2647" font-family="'DroidSans-Bold'" font-size="16.0715px">3</text>
	<text transform="matrix(1 0 0 1 309.7324 81.1055)" fill="#0E2647" font-family="'DroidSans-Bold'" font-size="16.0715px">10</text>
	<text transform="matrix(1 0 0 1 359.25 102.9707)" fill="#0E2647" font-family="'DroidSans-Bold'" font-size="16.0715px">10</text>
	<text transform="matrix(1 0 0 1 370.8262 165.9941)" fill="#0E2647" font-family="'DroidSans-Bold'" font-size="16.0715px">20</text>
	<text transform="matrix(1 0 0 1 328.3818 142.1992)" fill="#0E2647" font-family="'DroidSans-Bold'" font-size="16.0715px">6</text>
	<text transform="matrix(1 0 0 1 336.0986 194.9336)" fill="#0E2647" font-family="'DroidSans-Bold'" font-size="16.0715px">10</text>
	<text transform="matrix(1 0 0 1 341.8867 245.0947)" fill="#0E2647" font-family="'DroidSans-Bold'" font-size="16.0715px">6</text>
	<text transform="matrix(1 0 0 1 343.1729 288.8262)" fill="#0E2647" font-family="'DroidSans-Bold'" font-size="16.0715px">8</text>
	<text transform="matrix(1 0 0 1 375.9717 273.3906)" fill="#0E2647" font-family="'DroidSans-Bold'" font-size="16.0715px">6</text>
	<text transform="matrix(1 0 0 1 410.6992 269.5322)" fill="#0E2647" font-family="'DroidSans-Bold'" font-size="16.0715px">9</text>
	<text transform="matrix(1 0 0 1 446.7119 267.6035)" fill="#0E2647" font-family="'DroidSans-Bold'" font-size="16.0715px">16</text>
	<text transform="matrix(1 0 0 1 476.2939 322.9102)" fill="#0E2647" font-family="'DroidSans-Bold'" font-size="16.0715px">29</text>
	<text transform="matrix(1 0 0 1 477.5801 242.5234)" fill="#0E2647" font-family="'DroidSans-Bold'" font-size="16.0715px">9</text>
	<text transform="matrix(1 0 0 1 489.1562 218.085)" fill="#0E2647" font-family="'DroidSans-Bold'" font-size="16.0715px">15</text>
	<text transform="matrix(1 0 0 1 405.5537 225.1592)" fill="#0E2647" font-family="'DroidSans-Bold'" font-size="16.0715px">11</text>
	<text transform="matrix(1 0 0 1 426.7764 198.1494)" fill="#0E2647" font-family="'DroidSans-Bold'" font-size="16.0715px">8</text>
	<text transform="matrix(1 0 0 1 403.624 166.6377)" fill="#0E2647" font-family="'DroidSans-Bold'" font-size="16.0715px">11</text>
	<text transform="matrix(1 0 0 1 438.9951 157.6338)" fill="#0E2647" font-family="'DroidSans-Bold'" font-size="16.0715px">18</text>
	<text transform="matrix(1 0 0 1 467.9346 178.8564)" fill="#0E2647" font-family="'DroidSans-Bold'" font-size="16.0715px">5</text>
	<text transform="matrix(1 0 0 1 490.4434 187.2168)" fill="#0E2647" font-family="'DroidSans-Bold'" font-size="16.0715px">13</text>
	<text transform="matrix(1 0 0 1 489.7998 139.627)" fill="#0E2647" font-family="'DroidSans-Bold'" font-size="16.0715px">20</text>
	<text transform="matrix(1 0 0 1 511.6641 105.543)" fill="#0E2647" font-family="'DroidSans-Bold'" font-size="16.0715px">29</text>
	<text transform="matrix(1 0 0 1 566.9707 56.1201)" fill="#0E2647" font-family="'DroidSans-Bold'" font-size="16.0715px">4</text>
	<text transform="matrix(1 0 0 1 413.3193 122.1533)" fill="#0E2647" font-family="'DroidSans-Bold'" font-size="16.0715px">16</text>
	<path id="path3699" fill="none" stroke="#0E2647" stroke-width="2" stroke-linecap="round" stroke-miterlimit="10" d="M513.6,159.8
		c36.8,37.1,39.1,38.4,39.1,38.4l-2.2-1.3"/>
	<text transform="matrix(1 0 0 1 554.1094 208.4375)" fill="#0E2647" font-family="'DroidSans-Bold'" font-size="13.7756px">3</text>
	<path id="path5643" fill="none" stroke="#0E2647" stroke-width="2" stroke-linecap="round" stroke-miterlimit="10" d="M534.4,166
		c28.5,20.3,30.2,20.9,30.2,20.9l-1.6-0.6"/>
	<text transform="matrix(1 0 0 1 566.3447 194.1777)" fill="#0E2647" font-family="'DroidSans-Bold'" font-size="13.7756px">10</text>
	<text transform="matrix(1 0 0 1 571.7676 180.6758)" fill="#0E2647" font-family="'DroidSans-Bold'" font-size="13.7756px">3</text>
	<text transform="matrix(1 0 0 1 575.8613 165.2412)" fill="#0E2647" font-family="'DroidSans-Bold'" font-size="13.7756px">14</text>
	<path id="path8572" fill="none" stroke="#0E2647" stroke-width="2" stroke-linecap="round" stroke-miterlimit="10" d="M537,158.8
		c32.8,16.7,32.8,16.7,32.8,16.7"/>
	<path id="path9543" fill="none" stroke="#0E2647" stroke-width="2" stroke-linecap="round" stroke-miterlimit="10" d="M542.1,145.9
		c32.2,14.1,32.2,14.1,32.2,14.1"/>
	<path id="path11485" fill="none" stroke="#0E2647" stroke-width="2" stroke-linecap="round" stroke-miterlimit="10" d="M570.4,96.4
		c21.9,1.9,21.9,1.9,21.9,1.9"/>
	<text transform="matrix(1 0 0 1 594.6758 104.0498)" fill="#0E2647" font-family="'DroidSans-Bold'" font-size="13.7756px">11</text>
	<path id="path12460" fill="none" stroke="#0E2647" stroke-width="2" stroke-linecap="round" stroke-miterlimit="10" d="
		M565.9,112.5c26.4,7.7,26.4,7.7,26.4,7.7"/>
	<text transform="matrix(1 0 0 1 593.8193 126.0039)" fill="#0E2647" font-family="'DroidSans-Bold'" font-size="13.7756px">4</text>
	<path id="path13435" fill="none" stroke="#0E2647" stroke-width="2" stroke-linecap="round" stroke-miterlimit="10" d="
		M555.6,116.4c32.2,21.2,32.8,21.2,32.8,21.2"/>
	<text transform="matrix(1 0 0 1 589.3789 144.6533)" fill="#0E2647" font-family="'DroidSans-Bold'" font-size="13.7756px">7</text>
	<text transform="matrix(1 0 0 1 534.6133 33.1445)" fill="#0E2647" font-family="'DroidSans-Bold'" font-size="13.7756px">4</text>
	<text transform="matrix(1 0 0 1 526.6436 50.7617)" fill="#0E2647" font-family="'DroidSans-Bold'" font-size="13.7756px">3</text>
	<path id="path14422" fill="none" stroke="#0E2647" stroke-width="2" stroke-linecap="round" stroke-miterlimit="10" d="M550,56.7
		c-8.7-19-8.7-19-8.7-19"/>
	<path id="path20304" fill="none" stroke="#0E2647" stroke-width="2" stroke-linecap="round" stroke-miterlimit="10" d="M538.9,64.3
		c-5.2-11-5.2-11-5.2-11"/>
</g>
</svg>
