<?xml version="1.0" encoding="utf-8"?>
<!-- Generator: Adobe Illustrator 19.1.0, SVG Export Plug-In . SVG Version: 6.00 Build 0)  -->
<!DOCTYPE svg PUBLIC "-//W3C//DTD SVG 1.1//EN" "http://www.w3.org/Graphics/SVG/1.1/DTD/svg11.dtd">
<svg version="1.1" id="Layer_1" xmlns="http://www.w3.org/2000/svg" xmlns:xlink="http://www.w3.org/1999/xlink" x="0px" y="0px"
	 viewBox="0 0 409.5 381.3" style="enable-background:new 0 0 409.5 381.3;" xml:space="preserve">
<style type="text/css">
	.st0{fill:#FFF;}
	.st1{fill:#A43171;}
</style>
<g>
	<path class="st0 glass2" d="M409.4,344.2c-1.1-3.9-4.1-8.5-12.1-8.5c-3.5,0-7,0.8-10.2,1.6c-1.3,0.3-2.4,0.6-3.5,0.7l-0.4,0.1
		c-4.9,0.9-9.6,1.3-13.6,1.3c-5.2,0-7.6-0.8-8.2-1.1c-1.3-1.9-6.3-13.3-16.1-46.5c-5.6-19.1-9.9-35.8-11.6-43.7
		c17.4-9.9,33.5-25.8,41.5-40.9c10.8-20.4,12.5-41.5,5-59.3c-3.4-7.9-13.6-24.7-24.9-40.7c-5.7-8-10.9-14.8-15.1-19.6
		c-5.4-6.2-9.6-10-14.3-10c-0.8,0-1.6,0.1-2.4,0.3l-96.8,28c-5.5,1.6-7.5,7.5-8.9,17.1c-1,6.3-1.7,14.8-2.2,24.6
		c-1,19.6-0.7,39.2,0.7,47.7c6.4,39,55,62.3,93.7,60c2.7,7.8,7.8,24.3,13,42.9c9.3,33.5,11,45.8,11,48c-0.7,1.4-6,6.4-18.5,11.5
		l-0.3,0.1c-1,0.4-2.1,0.8-3.3,1.2c-6.9,2.4-18.4,6.4-15.2,17.8c1.3,4.3,7.3,4.3,9.6,4.3c22,0,94-21.6,102.1-32.4
		C409.7,347,409.7,345.3,409.4,344.2z M316.9,169.4c-8.9,0-18.2-2.3-28-4.7c-10.9-2.6-22.1-5.4-34-5.4c-8.6,0-16.5,1.4-24.1,4.4
		c-0.3,0.1-1,0.1-1-0.9c-0.3-19.4,1.5-35.1,3.5-42.3c0.1-0.3,0.1-0.6,1-1l89.5-25.9c1.3-0.4,1.6,0.1,1.9,0.3
		c6.6,6.5,22.1,27.7,32.6,45c0.4,0.7,0.3,1.4,0.1,1.7c-0.1,0.2-0.8,1.3-0.8,1.3C342.9,166.2,328.1,169.4,316.9,169.4z"/>
	<path class="st1 glass2" d="M254.8,157.7c11.8-0.3,23,2.3,33.9,4.8c9.8,2.3,19.1,4.4,27.9,4.2c11.1-0.2,25.7-3.8,39.8-29.3l0.5-0.9
		c10.6,11.4,13.1,27.9,11.7,43.2c-2.1,21.3-16.7,38.8-34.2,48.8c-22.5,13-52.3,14.6-75.3,1.6c-25.6-14.5-29.2-43-29.2-70.6
		C237.9,156.8,246.3,157.9,254.8,157.7z"/>
</g>
</svg>
